<?xml version="1.0" encoding="UTF-8"?>
<svg width="64" height="64" viewBox="0 0 64 64" xmlns="http://www.w3.org/2000/svg">
  <defs>
    <linearGradient id="grad1" x1="0%" y1="0%" x2="100%" y2="100%">
      <stop offset="0%" style="stop-color:#4A90E2;stop-opacity:1" />
      <stop offset="100%" style="stop-color:#7ED321;stop-opacity:1" />
    </linearGradient>
  </defs>
  
  <!-- Background circle -->
  <circle cx="32" cy="32" r="30" fill="url(#grad1)" stroke="#2E3A59" stroke-width="2"/>
  
  <!-- Chat bubble -->
  <path d="M20 20 L44 20 C46 20 48 22 48 24 L48 34 C48 36 46 38 44 38 L28 38 L20 44 L20 20 Z" 
        fill="white" stroke="#2E3A59" stroke-width="1.5"/>
  
  <!-- Text lines in bubble -->
  <line x1="24" y1="26" x2="40" y2="26" stroke="#2E3A59" stroke-width="1.5"/>
  <line x1="24" y1="30" x2="36" y2="30" stroke="#2E3A59" stroke-width="1.5"/>
  
  <!-- 3D cube icon -->
  <g transform="translate(36, 42)">
    <path d="M0 8 L8 4 L16 8 L16 16 L8 20 L0 16 Z" fill="#FFB74D" stroke="#2E3A59" stroke-width="1"/>
    <path d="M0 8 L8 4 L8 12 L0 16 Z" fill="#FF9800" stroke="#2E3A59" stroke-width="1"/>
    <path d="M8 4 L16 8 L16 16 L8 12 Z" fill="#F57C00" stroke="#2E3A59" stroke-width="1"/>
  </g>
</svg>